<svg xmlns="http://www.w3.org/2000/svg" version="1.1" xmlns:xlink="http://www.w3.org/1999/xlink" xmlns:svgjs="http://svgjs.com/svgjs" width="512" height="512" x="0" y="0" viewBox="0 0 28 28" style="enable-background:new 0 0 512 512" xml:space="preserve" class=""><g><switch><g><path d="M10 9c.55 0 1-.45 1-1V7c0-1.66 1.34-3 3-3s3 1.34 3 3v1c0 .55.45 1 1 1s1-.45 1-1V7c0-2.76-2.24-5-5-5S9 4.24 9 7v1c0 .55.45 1 1 1zm4 8c-2.76 0-5-2.24-5-5 0-.55.45-1 1-1s1 .45 1 1c0 1.66 1.34 3 3 3s3-1.34 3-3c0-.55.45-1 1-1s1 .45 1 1c0 2.76-2.24 5-5 5zm11 2.9L24 10c0-1.66-1.34-3-3-3H7a2.989 2.989 0 0 0-3 2.9L3 20c0 3.31 2.69 6 6 6h10c3.33-.01 6.01-2.72 6-6.05v-.05z" fill="#000000" data-original="#000000" class=""></path></g></switch></g></svg>